<?xml version="1.0" encoding="UTF-8"?>
<svg width="128px" height="128px" viewBox="0 0 128 128" version="1.1" xmlns="http://www.w3.org/2000/svg" xmlns:xlink="http://www.w3.org/1999/xlink">
    <title>Shape</title>
    <g id="Page-1" stroke="none" stroke-width="1" fill="none" fill-rule="evenodd">
        <g id="patternPack_vecor" transform="translate(-454.000000, -136.000000)" fill="#FFFFFF" fill-rule="nonzero">
            <path d="M582,153.6 C579.666667,153.6 577.433333,153.133333 575.3,152.2 C573.1,151.333333 571.2,150.066667 569.6,148.4 C567.933333,146.8 566.633333,144.9 565.7,142.7 C564.833333,140.5 564.4,138.266667 564.4,136 L582,136 L582,153.6 M535.6,136 C535.6,138.266667 535.166667,140.5 534.3,142.7 C533.366667,144.9 532.066667,146.8 530.4,148.4 C529.066667,149.8 527.5,150.933333 525.7,151.8 C523.9,152.666667 522,153.2 520,153.4 L518.4,153.6 L516.7,153.6 C514.7,153.8 512.8,154.4 511,155.4 C509.133333,156.4 507.6,157.733333 506.4,159.4 C504.933333,161.466667 504.033333,163.733333 503.7,166.2 L503.6,168.3 L503.4,170.5 C503.066667,172.833333 502.3,175 501.1,177 C499.833333,179.066667 498.266667,180.766667 496.4,182.1 C494.866667,183.233333 493.2,184.1 491.4,184.7 L485.8,185.6 C483.8,185.6 481.866667,186.033333 480,186.9 C478.133333,187.766667 476.533333,188.933333 475.2,190.4 C473.866667,191.933333 472.866667,193.7 472.2,195.7 C471.6,197.7 471.433333,199.7 471.7,201.7 C471.966667,203.7 472.6,205.533333 473.6,207.2 C474.6,208.933333 475.866667,210.366667 477.4,211.5 C478.666667,212.433333 480.033333,213.133333 481.5,213.6 L486,214.4 C488.266667,214.333333 490.5,214.766667 492.7,215.7 C494.833333,216.566667 496.7,217.8 498.3,219.4 C499.633333,220.733333 500.733333,222.233333 501.6,223.9 C502.466667,225.566667 503.066667,227.333333 503.4,229.2 C503.733333,231.4 503.666667,233.633333 503.2,235.9 C502.666667,238.1 501.766667,240.133333 500.5,242 C499.1,244 497.366667,245.633333 495.3,246.9 C493.166667,248.233333 490.9,249.066667 488.5,249.4 L486.3,249.5 L484,249.7 C481.666667,250.033333 479.533333,250.9 477.6,252.3 C475.6,253.7 474.1,255.466667 473.1,257.6 C472.166667,259.333333 471.666667,261.466667 471.6,264 L454,264 L454,246.4 C456.066667,246.333333 458.033333,245.9 459.9,245.1 L464.8,241.5 C466.133333,239.966667 467.1,238.266667 467.7,236.4 C468.3,234.466667 468.5,232.5 468.3,230.5 C468.1,228.566667 467.533333,226.7 466.6,224.9 C465.6,223.166667 464.3,221.7 462.7,220.5 C461.5,219.566667 460.133333,218.833333 458.6,218.3 L454,217.5 L454,182.4 C456.533333,182.333333 458.766667,181.766667 460.7,180.7 C463.033333,179.5 464.9,177.766667 466.3,175.5 C467.7,173.233333 468.4,170.8 468.4,168.2 C468.333333,165.866667 468.766667,163.6 469.7,161.4 C470.566667,159.2 471.8,157.266667 473.4,155.6 C475.066667,153.933333 477,152.633333 479.2,151.7 C481.4,150.766667 483.666667,150.333333 486,150.4 L491,149.5 L495.4,146.9 C496.933333,145.566667 498.166667,143.933333 499.1,142 C499.966667,140.066667 500.4,138.066667 500.4,136 L535.6,136 M500.4,264 C500.4,261.066667 501.133333,258.233333 502.6,255.5 C504,252.833333 505.966667,250.733333 508.5,249.2 C510.366667,247.933333 512.4,247.1 514.6,246.7 C516.866667,246.233333 519.1,246.233333 521.3,246.7 C523.5,247.1 525.566667,247.9 527.5,249.1 C529.433333,250.366667 531.033333,251.9 532.3,253.7 C533.366667,255.166667 534.2,256.8 534.8,258.6 C535.333333,260.333333 535.6,262.133333 535.6,264 L500.4,264 M564.4,264 C564.4,262.4 564.166667,260.866667 563.7,259.4 L561.6,255.4 C560.4,253.733333 558.866667,252.4 557,251.4 C555.2,250.4 553.266667,249.8 551.2,249.6 L549.6,249.5 L548,249.4 C546,249.2 544.1,248.666667 542.3,247.8 C540.433333,246.866667 538.8,245.7 537.4,244.3 C535.8,242.7 534.566667,240.8 533.7,238.6 C532.833333,236.466667 532.4,234.266667 532.4,232 C532.4,230.4 532.133333,228.833333 531.6,227.3 C531.066667,225.766667 530.3,224.366667 529.3,223.1 C528.033333,221.366667 526.366667,220 524.3,219 C522.3,218.066667 520.2,217.6 518,217.6 C515.2,217.6 512.533333,216.933333 510,215.6 C507.4,214.266667 505.3,212.466667 503.7,210.2 C502.366667,208.4 501.433333,206.333333 500.9,204 C500.366667,201.733333 500.266667,199.466667 500.6,197.2 C500.933333,195.4 501.5,193.666667 502.3,192 C503.166667,190.333333 504.266667,188.833333 505.6,187.5 C507.2,185.9 509.066667,184.633333 511.2,183.7 C513.333333,182.833333 515.533333,182.4 517.8,182.4 L523.5,183.2 C525.366667,183.8 527.066667,184.7 528.6,185.9 C530.4,187.233333 531.9,188.933333 533.1,191 C534.3,193 535.066667,195.133333 535.4,197.4 L535.6,199.6 L535.7,201.7 C536.033333,204.166667 536.9,206.4 538.3,208.4 C539.433333,209.933333 540.866667,211.233333 542.6,212.3 C544.266667,213.3 546.066667,213.933333 548,214.2 L552.6,214.1 L556.9,212.6 C558.9,211.533333 560.566667,210 561.9,208 C563.233333,206.066667 564.033333,203.966667 564.3,201.7 L564.4,199.7 L564.5,197.7 C564.833333,195.366667 565.6,193.166667 566.8,191.1 C568,189.033333 569.533333,187.3 571.4,185.9 C572.933333,184.766667 574.6,183.9 576.4,183.3 L582,182.4 L582,217.5 C579.933333,217.566667 577.933333,218.033333 576,218.9 C574.066667,219.766667 572.433333,221 571.1,222.6 C569.766667,224.066667 568.8,225.8 568.2,227.8 C567.6,229.8 567.433333,231.766667 567.7,233.7 C567.966667,235.633333 568.566667,237.433333 569.5,239.1 C570.433333,240.766667 571.633333,242.166667 573.1,243.3 C574.366667,244.3 575.766667,245.066667 577.3,245.6 L582,246.4 L582,264 L564.4,264 M546.9,150.6 C549.1,150.2 551.333333,150.233333 553.6,150.7 C555.866667,151.233333 557.933333,152.133333 559.8,153.4 C561.666667,154.6 563.266667,156.166667 564.6,158.1 C565.866667,159.966667 566.733333,162 567.2,164.2 L567.6,169.1 C567.466667,170.833333 567.1,172.466667 566.5,174 C565.7,176.4 564.366667,178.5 562.5,180.3 C560.7,182.166667 558.6,183.533333 556.2,184.4 C554.266667,185.2 552.2,185.6 550,185.6 C547.866667,185.6 545.8,185.2 543.8,184.4 C541.733333,183.666667 539.866667,182.533333 538.2,181 C536.533333,179.466667 535.2,177.7 534.2,175.7 C533.333333,174.033333 532.8,172.233333 532.6,170.3 C532.333333,168.433333 532.366667,166.566667 532.7,164.7 C533.1,162.5 533.933333,160.433333 535.2,158.5 C536.466667,156.5 538,154.866667 539.8,153.6 C541.933333,152.066667 544.3,151.066667 546.9,150.6 M471.6,136 C471.6,138.266667 471.166667,140.5 470.3,142.7 C469.366667,144.9 468.066667,146.8 466.4,148.4 C464.8,150.066667 462.9,151.333333 460.7,152.2 C458.566667,153.133333 456.333333,153.6 454,153.6 L454,136 L471.6,136" id="Shape"></path>
        </g>
    </g>
</svg>